<svg width="259" height="240" viewBox="0 0 259 240" fill="none" xmlns="http://www.w3.org/2000/svg">
<path d="M224.333 114.796C224.333 137.822 218.491 156.784 205.345 170.329C192.198 185.228 171.749 192 146.917 192L146.917 159.493C165.906 159.493 176.131 148.657 176.131 125.632L176.131 117.505L141.074 117.505L141.074 55.2L212.648 55.2C219.951 75.5168 224.333 95.8337 224.333 114.796ZM120.625 114.796C120.625 137.822 114.782 156.784 101.636 170.329C88.4896 183.873 69.5007 192 44.669 192L44.669 159.493C63.6579 159.493 72.422 148.657 72.422 125.632L72.422 117.505L37.3655 117.505L37.3655 55.2L108.939 55.2C116.243 75.5168 120.625 95.8337 120.625 114.796Z" fill="#738EFF"/>
</svg>
